<svg width="467.22001953125px" height="124.439990234375px" xmlns="http://www.w3.org/2000/svg" viewBox="16.389990234375006 12.780004882812499 467.22001953125 124.439990234375" style="background: rgba(0, 0, 0, 0) none repeat scroll 0% 0%;" preserveAspectRatio="xMidYMid"><defs><filter id="editing-vr"><feFlood flood-color="#f00" flood-opacity="0.7" result="c1"></feFlood><feFlood flood-color="#00f" flood-opacity="0.7" result="c3"></feFlood><feComposite operator="in" in="c1" in2="SourceAlpha" result="text-c1"></feComposite><feComposite operator="in" in="c3" in2="SourceAlpha" result="text-c3"></feComposite><feOffset in="text-c1" dx="5" dy="-1" result="text1"></feOffset><feOffset in="text-c3" dx="-5" dy="1" result="text3"></feOffset><feBlend in="SourceGraphic" in2="text1" mode="multiply" result="text4"></feBlend><feBlend in="text4" in2="text3" mode="multiply"></feBlend></filter></defs><g filter="url(#editing-vr)"><g transform="translate(90.11001396179199, 97.81500053405762)"><path d="M29.18 1.28L29.18 1.28L29.18 1.28Q20.99 1.28 20.22-10.37L20.22-10.37L9.22-10.37L9.22-10.37Q7.94-7.42 7.04-4.86L7.04-4.86L5.38 0L-3.58 0L16.58-42.24L30.34-42.24L33.02-11.14L33.02-11.14Q33.66-4.42 36.22-2.43L36.22-2.43L36.22-2.43Q34.37 1.28 29.18 1.28ZM14.72-23.17L11.20-15.04L20.03-15.04L19.26-31.49L19.26-33.22L14.72-23.17ZM53.06 0L39.36 0L47.17-42.05L47.17-42.05Q53.50-42.75 62.75-42.75L62.75-42.75L62.75-42.75Q72-42.75 76.29-40.06L76.29-40.06L76.29-40.06Q80.58-37.38 80.58-31.97L80.58-31.97L80.58-31.97Q80.58-26.56 77.79-23.17L77.79-23.17L77.79-23.17Q75.01-19.78 70.21-18.69L70.21-18.69L70.21-18.69Q71.30-13.38 73.79-9.09L73.79-9.09L73.79-9.09Q76.10-5.06 78.78-3.78L78.78-3.78L78.78-3.78Q77.82-1.09 75.87 0.10L75.87 0.10L75.87 0.10Q73.92 1.28 71.14 1.28L71.14 1.28L71.14 1.28Q68.35 1.28 66.18-0.35L66.18-0.35L66.18-0.35Q64-1.98 62.27-4.99L62.27-4.99L62.27-4.99Q58.62-11.52 58.24-21.82L58.24-21.82L58.69-21.82L58.69-21.82Q63.42-21.95 65.79-24.42L65.79-24.42L65.79-24.42Q68.16-26.88 68.16-32.06L68.16-32.06L68.16-32.06Q68.16-38.53 62.72-38.78L62.72-38.78L61.31-38.78L61.31-38.78Q60.74-38.78 60.42-38.72L60.42-38.72L53.06 0ZM85.50-39.87L85.50-39.87L85.50-39.87Q88.51-43.39 93.50-43.39L93.50-43.39L93.50-43.39Q97.47-43.39 99.58-41.86L99.58-41.86L99.58-41.86Q101.70-40.26 103.10-36.35L103.10-36.35L105.79-28.74L115.46-42.18L124.10-42.18L108.42-21.38L112.45-9.98L112.45-9.98Q113.34-7.42 114.91-5.54L114.91-5.54L114.91-5.54Q116.48-3.65 117.89-3.33L117.89-3.33L117.89-3.33Q116.61-0.90 114.40 0.19L114.40 0.19L114.40 0.19Q112.19 1.28 108.96 1.28L108.96 1.28L108.96 1.28Q105.73 1.28 103.46-0.83L103.46-0.83L103.46-0.83Q101.18-2.94 99.46-7.68L99.46-7.68L97.60-12.80L87.94 0L80.06 0L94.78-20.42L90.18-33.28L90.18-33.28Q89.15-36.10 88.13-37.54L88.13-37.54L88.13-37.54Q87.10-38.98 85.50-39.87ZM146.11-4.80L146.11-4.80L146.11-4.80Q146.11-9.28 147.90-18.24L147.90-18.24L138.43-18.24L134.91 0L121.54 0L129.66-42.24L143.17-42.24L139.46-23.36L148.93-23.36L152.45-42.24L165.95-42.24L165.95-42.24Q165.06-37.50 163.90-32.19L163.90-32.19L161.73-21.76L161.73-21.76Q159.30-9.60 159.30-4.29L159.30-4.29L159.30-4.29Q159.30-2.11 160-0.90L160-0.90L160-0.90Q156.80 1.28 153.06 1.28L153.06 1.28L153.06 1.28Q149.31 1.28 147.71-0.51L147.71-0.51L147.71-0.51Q146.11-2.30 146.11-4.80ZM180.61 0L166.91 0L174.72-42.05L174.72-42.05Q181.06-42.75 190.30-42.75L190.30-42.75L190.30-42.75Q199.55-42.75 203.84-40.06L203.84-40.06L203.84-40.06Q208.13-37.38 208.13-31.97L208.13-31.97L208.13-31.97Q208.13-26.56 205.34-23.17L205.34-23.17L205.34-23.17Q202.56-19.78 197.76-18.69L197.76-18.69L197.76-18.69Q198.85-13.38 201.34-9.09L201.34-9.09L201.34-9.09Q203.65-5.06 206.34-3.78L206.34-3.78L206.34-3.78Q205.38-1.09 203.42 0.10L203.42 0.10L203.42 0.10Q201.47 1.28 198.69 1.28L198.69 1.28L198.69 1.28Q195.90 1.28 193.73-0.35L193.73-0.35L193.73-0.35Q191.55-1.98 189.82-4.99L189.82-4.99L189.82-4.99Q186.18-11.52 185.79-21.82L185.79-21.82L186.24-21.82L186.24-21.82Q190.98-21.95 193.34-24.42L193.34-24.42L193.34-24.42Q195.71-26.88 195.71-32.06L195.71-32.06L195.71-32.06Q195.71-38.53 190.27-38.78L190.27-38.78L188.86-38.78L188.86-38.78Q188.29-38.78 187.97-38.72L187.97-38.72L180.61 0ZM212.10-15.23L212.10-15.23L212.10-15.23Q212.10-28.16 218.18-35.84L218.18-35.84L218.18-35.84Q224.26-43.52 234.69-43.52L234.69-43.52L234.69-43.52Q240.26-43.52 243.46-39.36L243.46-39.36L243.46-39.36Q246.66-35.20 246.66-28.26L246.66-28.26L246.66-28.26Q246.66-21.31 245.09-15.90L245.09-15.90L245.09-15.90Q243.52-10.50 240.70-6.66L240.70-6.66L240.70-6.66Q234.82 1.34 225.02 1.34L225.02 1.34L225.02 1.34Q218.43 1.34 215.26-2.72L215.26-2.72L215.26-2.72Q212.10-6.78 212.10-15.23ZM223.42-10.88L223.42-10.88L223.42-10.88Q223.42-4.42 225.54-4.42L225.54-4.42L225.54-4.42Q227.46-4.42 229.22-6.66L229.22-6.66L229.22-6.66Q230.98-8.90 232.38-12.67L232.38-12.67L232.38-12.67Q235.39-20.93 235.39-31.17L235.39-31.17L235.39-31.17Q235.39-34.62 234.85-36.19L234.85-36.19L234.85-36.19Q234.30-37.76 232.86-37.76L232.86-37.76L232.86-37.76Q231.42-37.76 229.73-35.26L229.73-35.26L229.73-35.26Q228.03-32.77 226.62-28.86L226.62-28.86L226.62-28.86Q223.42-19.97 223.42-10.88ZM250.75-15.23L250.75-15.23L250.75-15.23Q250.75-28.16 256.83-35.84L256.83-35.84L256.83-35.84Q262.91-43.52 273.34-43.52L273.34-43.52L273.34-43.52Q278.91-43.52 282.11-39.36L282.11-39.36L282.11-39.36Q285.31-35.20 285.31-28.26L285.31-28.26L285.31-28.26Q285.31-21.31 283.74-15.90L283.74-15.90L283.74-15.90Q282.18-10.50 279.36-6.66L279.36-6.66L279.36-6.66Q273.47 1.34 263.68 1.34L263.68 1.34L263.68 1.34Q257.09 1.34 253.92-2.72L253.92-2.72L253.92-2.72Q250.75-6.78 250.75-15.23ZM262.08-10.88L262.08-10.88L262.08-10.88Q262.08-4.42 264.19-4.42L264.19-4.42L264.19-4.42Q266.11-4.42 267.87-6.66L267.87-6.66L267.87-6.66Q269.63-8.90 271.04-12.67L271.04-12.67L271.04-12.67Q274.05-20.93 274.05-31.17L274.05-31.17L274.05-31.17Q274.05-34.62 273.50-36.19L273.50-36.19L273.50-36.19Q272.96-37.76 271.52-37.76L271.52-37.76L271.52-37.76Q270.08-37.76 268.38-35.26L268.38-35.26L268.38-35.26Q266.69-32.77 265.28-28.86L265.28-28.86L265.28-28.86Q262.08-19.97 262.08-10.88ZM295.42-11.71L311.49-33.86L311.49-33.86Q305.66-31.42 300.61-31.42L300.61-31.42L300.61-31.42Q295.55-31.42 292.93-33.15L292.93-33.15L292.93-33.15Q290.30-34.88 290.30-37.89L290.30-37.89L290.30-37.89Q290.30-39.74 290.85-41.15L290.85-41.15L290.85-41.15Q291.39-42.56 292.80-44.29L292.80-44.29L292.80-44.29Q293.44-43.01 302.14-42.37L302.14-42.37L302.14-42.37Q304.45-42.24 306.50-42.24L306.50-42.24L320.70-42.24L322.11-36.86L319.17-32.26L316.29-27.33L312.38-20.10L312.38-20.10Q309.18-14.02 308.26-11.26L308.26-11.26L308.26-11.26Q307.33-8.51 307.14-7.42L307.14-7.42L307.14-7.42Q306.75-5.82 306.75-4.45L306.75-4.45L306.75-4.45Q306.75-3.07 307.46-2.37L307.46-2.37L307.46-2.37Q306.18-0.06 302.40 0.96L302.40 0.96L302.40 0.96Q301.18 1.28 299.71 1.28L299.71 1.28L299.71 1.28Q298.24 1.28 296.96 0.70L296.96 0.70L296.96 0.70Q295.68 0.13 294.85-0.77L294.85-0.77L294.85-0.77Q293.25-2.69 293.25-4.90L293.25-4.90L293.25-4.90Q293.25-7.10 293.89-8.67L293.89-8.67L293.89-8.67Q294.53-10.24 295.42-11.71L295.42-11.71Z" fill="#444"></path></g></g><style>text {
  font-size: 64px;
  font-family: Arial Black;
  dominant-baseline: central;
  text-anchor: middle;
}</style></svg>